<mxfile host="app.diagrams.net" modified="2020-10-06T17:01:08.425Z" agent="5.0 (Windows NT 10.0; Win64; x64) AppleWebKit/537.36 (KHTML, like Gecko) Chrome/85.0.4183.121 Safari/537.36" etag="5uvhSc9Odz1bAlsrDe6y" version="13.7.7" type="github">
  <diagram id="C5RBs43oDa-KdzZeNtuy" name="Page-1">
    <mxGraphModel dx="1021" dy="1736" grid="1" gridSize="10" guides="1" tooltips="1" connect="1" arrows="1" fold="1" page="1" pageScale="1" pageWidth="827" pageHeight="1169" math="0" shadow="0">
      <root>
        <mxCell id="WIyWlLk6GJQsqaUBKTNV-0" />
        <mxCell id="WIyWlLk6GJQsqaUBKTNV-1" parent="WIyWlLk6GJQsqaUBKTNV-0" />
        <mxCell id="dlyli27qaH50Hd04XwQE-0" value="" style="endArrow=none;html=1;" edge="1" parent="WIyWlLk6GJQsqaUBKTNV-1">
          <mxGeometry width="50" height="50" relative="1" as="geometry">
            <mxPoint x="320" y="750" as="sourcePoint" />
            <mxPoint x="320" y="40" as="targetPoint" />
          </mxGeometry>
        </mxCell>
        <mxCell id="dlyli27qaH50Hd04XwQE-1" value="" style="endArrow=none;html=1;" edge="1" parent="WIyWlLk6GJQsqaUBKTNV-1">
          <mxGeometry width="50" height="50" relative="1" as="geometry">
            <mxPoint x="520" y="750" as="sourcePoint" />
            <mxPoint x="520" y="40" as="targetPoint" />
          </mxGeometry>
        </mxCell>
        <mxCell id="dlyli27qaH50Hd04XwQE-18" style="edgeStyle=orthogonalEdgeStyle;rounded=0;orthogonalLoop=1;jettySize=auto;html=1;" edge="1" parent="WIyWlLk6GJQsqaUBKTNV-1" source="dlyli27qaH50Hd04XwQE-3" target="dlyli27qaH50Hd04XwQE-9">
          <mxGeometry relative="1" as="geometry" />
        </mxCell>
        <mxCell id="dlyli27qaH50Hd04XwQE-3" value="&lt;font style=&quot;font-size: 14px&quot;&gt;&lt;b&gt;Process Close&lt;/b&gt;&lt;/font&gt;" style="rounded=1;whiteSpace=wrap;html=1;rotation=90;" vertex="1" parent="WIyWlLk6GJQsqaUBKTNV-1">
          <mxGeometry x="324" y="460" width="180" height="60" as="geometry" />
        </mxCell>
        <mxCell id="dlyli27qaH50Hd04XwQE-15" style="edgeStyle=orthogonalEdgeStyle;rounded=0;orthogonalLoop=1;jettySize=auto;html=1;entryX=0.993;entryY=0.556;entryDx=0;entryDy=0;entryPerimeter=0;" edge="1" parent="WIyWlLk6GJQsqaUBKTNV-1" source="dlyli27qaH50Hd04XwQE-4" target="dlyli27qaH50Hd04XwQE-12">
          <mxGeometry relative="1" as="geometry">
            <Array as="points">
              <mxPoint x="307" y="180" />
              <mxPoint x="307" y="330" />
              <mxPoint x="250" y="330" />
              <mxPoint x="250" y="359" />
            </Array>
          </mxGeometry>
        </mxCell>
        <mxCell id="dlyli27qaH50Hd04XwQE-23" style="edgeStyle=orthogonalEdgeStyle;rounded=0;orthogonalLoop=1;jettySize=auto;html=1;" edge="1" parent="WIyWlLk6GJQsqaUBKTNV-1" source="dlyli27qaH50Hd04XwQE-4" target="dlyli27qaH50Hd04XwQE-10">
          <mxGeometry relative="1" as="geometry" />
        </mxCell>
        <mxCell id="dlyli27qaH50Hd04XwQE-4" value="&lt;font style=&quot;font-size: 14px&quot;&gt;&lt;b&gt;Employer on Demand&lt;/b&gt;&lt;/font&gt;" style="rounded=1;whiteSpace=wrap;html=1;rotation=90;" vertex="1" parent="WIyWlLk6GJQsqaUBKTNV-1">
          <mxGeometry x="324" y="150" width="180" height="60" as="geometry" />
        </mxCell>
        <mxCell id="dlyli27qaH50Hd04XwQE-5" value="&lt;font style=&quot;font-size: 18px&quot;&gt;Global Tax tables&lt;/font&gt;" style="text;html=1;strokeColor=none;fillColor=none;align=center;verticalAlign=middle;whiteSpace=wrap;rounded=0;" vertex="1" parent="WIyWlLk6GJQsqaUBKTNV-1">
          <mxGeometry x="590" y="50" width="200" height="40" as="geometry" />
        </mxCell>
        <mxCell id="dlyli27qaH50Hd04XwQE-6" value="&lt;font style=&quot;font-size: 18px&quot;&gt;Local : SBO Tax tables&lt;/font&gt;" style="text;html=1;strokeColor=none;fillColor=none;align=center;verticalAlign=middle;whiteSpace=wrap;rounded=0;" vertex="1" parent="WIyWlLk6GJQsqaUBKTNV-1">
          <mxGeometry x="70" y="50" width="220" height="40" as="geometry" />
        </mxCell>
        <mxCell id="dlyli27qaH50Hd04XwQE-8" value="Company_PayrollTax&lt;br&gt;Company_PayrollRecord" style="shape=cylinder3;whiteSpace=wrap;html=1;boundedLbl=1;backgroundOutline=1;size=15;" vertex="1" parent="WIyWlLk6GJQsqaUBKTNV-1">
          <mxGeometry x="75" y="500" width="155" height="160" as="geometry" />
        </mxCell>
        <mxCell id="dlyli27qaH50Hd04XwQE-9" value="&lt;b&gt;&lt;font style=&quot;font-size: 14px&quot;&gt;Destination tables&lt;/font&gt;&lt;/b&gt;" style="text;html=1;strokeColor=none;fillColor=none;align=center;verticalAlign=middle;whiteSpace=wrap;rounded=0;" vertex="1" parent="WIyWlLk6GJQsqaUBKTNV-1">
          <mxGeometry x="70" y="550" width="160" height="20" as="geometry" />
        </mxCell>
        <mxCell id="dlyli27qaH50Hd04XwQE-14" style="edgeStyle=orthogonalEdgeStyle;rounded=0;orthogonalLoop=1;jettySize=auto;html=1;entryX=0.75;entryY=0;entryDx=0;entryDy=0;" edge="1" parent="WIyWlLk6GJQsqaUBKTNV-1" source="dlyli27qaH50Hd04XwQE-10" target="dlyli27qaH50Hd04XwQE-4">
          <mxGeometry relative="1" as="geometry">
            <mxPoint x="500" y="210" as="targetPoint" />
          </mxGeometry>
        </mxCell>
        <mxCell id="dlyli27qaH50Hd04XwQE-10" value="Global_LocalTaxRates&lt;br&gt;Global_LocalTax" style="shape=cylinder3;whiteSpace=wrap;html=1;boundedLbl=1;backgroundOutline=1;size=15;" vertex="1" parent="WIyWlLk6GJQsqaUBKTNV-1">
          <mxGeometry x="600" y="390" width="150" height="160" as="geometry" />
        </mxCell>
        <mxCell id="dlyli27qaH50Hd04XwQE-11" value="&lt;b&gt;&lt;font style=&quot;font-size: 14px&quot;&gt;Source tables&lt;/font&gt;&lt;/b&gt;" style="text;html=1;strokeColor=none;fillColor=none;align=center;verticalAlign=middle;whiteSpace=wrap;rounded=0;" vertex="1" parent="WIyWlLk6GJQsqaUBKTNV-1">
          <mxGeometry x="595" y="430" width="160" height="20" as="geometry" />
        </mxCell>
        <mxCell id="dlyli27qaH50Hd04XwQE-16" style="edgeStyle=orthogonalEdgeStyle;rounded=0;orthogonalLoop=1;jettySize=auto;html=1;entryX=0.25;entryY=1;entryDx=0;entryDy=0;" edge="1" parent="WIyWlLk6GJQsqaUBKTNV-1" source="dlyli27qaH50Hd04XwQE-12" target="dlyli27qaH50Hd04XwQE-3">
          <mxGeometry relative="1" as="geometry">
            <Array as="points">
              <mxPoint x="300" y="370" />
              <mxPoint x="300" y="445" />
            </Array>
          </mxGeometry>
        </mxCell>
        <mxCell id="dlyli27qaH50Hd04XwQE-12" value="Global_LocalTaxRates&lt;br&gt;SBO_LocalTaxAgencyForm&lt;br&gt;SBO_LocalTaxAgency&lt;br&gt;SBO_LocalTaxRates&lt;br&gt;SBO_LocalTax" style="shape=cylinder3;whiteSpace=wrap;html=1;boundedLbl=1;backgroundOutline=1;size=15;" vertex="1" parent="WIyWlLk6GJQsqaUBKTNV-1">
          <mxGeometry x="70" y="270" width="160" height="160" as="geometry" />
        </mxCell>
        <mxCell id="dlyli27qaH50Hd04XwQE-13" value="&lt;b&gt;&lt;font style=&quot;font-size: 14px&quot;&gt;Source tables&lt;/font&gt;&lt;/b&gt;" style="text;html=1;strokeColor=none;fillColor=none;align=center;verticalAlign=middle;whiteSpace=wrap;rounded=0;" vertex="1" parent="WIyWlLk6GJQsqaUBKTNV-1">
          <mxGeometry x="65" y="300" width="160" height="20" as="geometry" />
        </mxCell>
        <mxCell id="dlyli27qaH50Hd04XwQE-24" style="edgeStyle=orthogonalEdgeStyle;rounded=0;orthogonalLoop=1;jettySize=auto;html=1;entryX=0;entryY=0.5;entryDx=0;entryDy=0;" edge="1" parent="WIyWlLk6GJQsqaUBKTNV-1" source="dlyli27qaH50Hd04XwQE-21" target="dlyli27qaH50Hd04XwQE-4">
          <mxGeometry relative="1" as="geometry" />
        </mxCell>
        <mxCell id="dlyli27qaH50Hd04XwQE-21" value="User" style="shape=cube;whiteSpace=wrap;html=1;boundedLbl=1;backgroundOutline=1;darkOpacity=0.05;darkOpacity2=0.1;" vertex="1" parent="WIyWlLk6GJQsqaUBKTNV-1">
          <mxGeometry x="360" y="-80" width="120" height="80" as="geometry" />
        </mxCell>
      </root>
    </mxGraphModel>
  </diagram>
</mxfile>
